mtllib chain_model.mtl
o nodes_2__meshes[0]
v 0.000000 100.000000 66.250397
v 0.000000 -100.000000 99.250404
v 0.000000 100.000000 99.250404
v 0.000000 -100.000000 66.250397
v -100.000000 0.000000 67.000000
v 100.000000 0.000000 100.000000
v 100.000000 0.000000 67.000000
v -100.000000 0.000000 100.000000
v 0.000000 100.000000 32.250519
v 0.000000 -100.000000 66.250397
v 0.000000 100.000000 66.250397
v 0.000000 -100.000000 32.250519
v -100.000000 0.000000 33.000000
v 100.000000 0.000000 67.000000
v 100.000000 0.000000 33.000000
v -100.000000 0.000000 67.000000
v 0.000000 100.000000 -0.749472
v 0.000000 -100.000000 32.250519
v 0.000000 100.000000 32.250519
v 0.000000 -100.000000 -0.749472
v -100.000000 0.000000 0.000000
v 100.000000 0.000000 33.000000
v 100.000000 0.000000 0.000000
v -100.000000 0.000000 33.000000
vt 1.000000 0.000000
vt 0.000000 19.999800
vt 1.000000 19.999800
vt 0.000000 0.000000
vt 1.000000 0.000000
vt 0.000000 19.999800
vt 0.000000 0.000000
vt 1.000000 19.999800
vt 1.000000 0.000000
vt 0.000000 19.999800
vt 1.000000 19.999800
vt 0.000000 0.000000
vt 1.000000 0.000000
vt 0.000000 19.999800
vt 0.000000 0.000000
vt 1.000000 19.999800
vt 1.000000 0.000000
vt 0.000000 19.999800
vt 1.000000 19.999800
vt 0.000000 0.000000
vt 1.000000 0.000000
vt 0.000000 19.999800
vt 0.000000 0.000000
vt 1.000000 19.999800
vn -1.0000 0.0000 0.0000
vn 0.0000 1.0000 0.0000
usemtl material0
s off
f 1/1/1 2/2/1 3/3/1
f 1/1/1 4/4/1 2/2/1
f 5/5/2 6/6/2 7/7/2
f 5/5/2 8/8/2 6/6/2
f 9/9/1 10/10/1 11/11/1
f 9/9/1 12/12/1 10/10/1
f 13/13/2 14/14/2 15/15/2
f 13/13/2 16/16/2 14/14/2
f 17/17/1 18/18/1 19/19/1
f 17/17/1 20/20/1 18/18/1
f 21/21/2 22/22/2 23/23/2
f 21/21/2 24/24/2 22/22/2
