mtllib long_sword_blade_model.mtl
o nodes_2__meshes[0]
v -1565.384033 0.000153 69.999199
v 1921.908081 -0.000153 69.999611
v 821.908020 190.000000 0.000000
v 821.908020 -190.000000 0.000000
v 1921.908081 -0.000153 69.999611
v -1565.384033 0.000153 69.999199
v -1442.564087 0.000000 -70.000397
v 1921.908081 0.000153 -70.000397
v 821.908020 -190.000000 0.000000
v 821.908020 190.000000 0.000000
v 1921.908081 0.000153 -70.000397
v -1442.564087 0.000000 -70.000397
v 1861.908081 -230.000000 0.000000
v 1861.908081 -230.000000 0.000000
v 2811.908203 -0.000153 0.000000
v 1921.908081 0.000153 -70.000397
v 2811.908203 -0.000153 0.000000
v 1861.908081 -230.000000 0.000000
v 1861.908081 230.000000 -0.000305
v 1861.908081 230.000000 -0.000305
v 1861.908081 230.000000 -0.000305
v 2811.908203 -0.000153 0.000000
v 1921.908081 0.000153 -70.000397
v 1921.908081 -0.000153 69.999611
v 2811.908203 -0.000153 0.000000
v 1861.908081 230.000000 -0.000305
v -1565.384033 0.000153 69.999199
v -1443.284058 306.537201 -0.000305
v -1442.564087 0.000000 -70.000397
v -1565.384033 0.000153 69.999199
v -1442.564087 0.000000 -70.000397
v -1308.544067 -299.605194 -0.000610
v -1443.284058 306.537201 -0.000305
v -1308.544067 -299.605194 -0.000610
v -1308.544067 -299.605194 -0.000610
v -1443.284058 306.537201 -0.000305
vt 0.406259 0.531254
vt 0.406259 0.593751
vt 0.406259 0.593751
vt 0.406259 0.531254
vt 0.406259 0.531254
vt 0.406259 0.593751
vt 0.468757 0.416987
vt 0.468757 0.414758
vt 0.406259 0.543793
vt 0.468757 0.416987
vt 0.406259 0.543793
vt 0.406259 0.550915
vt 0.468757 0.416987
vt 0.468757 0.468757
vt 0.468757 0.437499
vt 0.406259 0.593751
vt 0.406259 0.593751
vt 0.406259 0.541981
vt 0.406259 0.543793
vt 0.406259 0.593751
vt 0.406259 0.593751
vt 0.468757 0.437499
vt 0.468757 0.468757
vt 0.468757 0.418799
vt 0.406259 0.593751
vt 0.406259 0.593751
vt 0.406259 0.531254
vt 0.406259 0.531254
vt 0.406259 0.593751
vt 0.406259 0.531254
vt 0.468757 0.468757
vt 0.468757 0.468757
vt 0.468757 0.414758
vt 0.406259 0.550915
vt 0.406259 0.550915
vt 0.468757 0.414758
vn 0.0746 0.3081 -0.9484
vn 0.0746 0.3081 0.9484
vn -0.7435 0.1472 -0.6523
vn -0.6749 -0.4403 -0.5921
vn 0.0104 0.2275 0.9737
vn -0.0096 0.2964 0.9550
vn -0.0003 0.3367 0.9416
vn -0.0003 -0.3367 0.9416
vn 0.0388 -0.3034 0.9521
vn 0.0101 -0.2308 0.9729
vn 0.0106 -0.2322 -0.9726
vn -0.0096 -0.2964 -0.9550
vn -0.0002 -0.3367 -0.9416
vn -0.0002 0.3367 -0.9416
vn -0.0096 0.2964 -0.9550
vn 0.0108 0.2297 -0.9732
vn 0.0216 -0.2962 -0.9548
vn -0.0111 -0.2885 0.9574
vn 0.0746 -0.3081 -0.9484
vn 0.0746 -0.3081 0.9484
vn -0.0111 0.2885 -0.9574
vn -0.0111 0.2885 0.9574
vn 0.0112 0.2183 0.9758
vn 0.0112 -0.2183 0.9758
vn 0.0114 -0.2226 -0.9748
vn 0.0114 0.2226 -0.9748
usemtl material0
s off
f 21/1/1 22/2/1 23/3/1
f 24/4/2 25/5/2 26/6/2
f 27/7/3 28/8/3 29/9/3
f 30/10/4 31/11/4 32/12/4
s 1
f 1/13/5 2/14/6 3/15/7
f 4/16/8 5/17/9 6/18/10
f 7/19/11 8/20/12 9/21/13
f 10/22/14 11/23/15 12/24/16
f 8/20/12 13/25/17 9/21/13
f 4/16/8 14/26/18 5/17/9
f 15/27/19 13/25/17 16/28/19
f 17/29/20 5/17/9 18/30/20
f 19/31/21 11/23/15 10/22/14
f 2/14/6 20/32/22 3/15/7
f 1/13/5 3/15/7 33/33/23
f 4/16/8 6/18/10 34/34/24
f 7/19/11 9/21/13 35/35/25
f 10/22/14 12/24/16 36/36/26
